<svg width="37" height="37" viewBox="0 0 37 37" fill="none" xmlns="http://www.w3.org/2000/svg">
<path d="M29.2917 16.9583H7.70833C6.00546 16.9583 4.625 18.3387 4.625 20.0416V30.8333C4.625 32.5361 6.00546 33.9166 7.70833 33.9166H29.2917C30.9945 33.9166 32.375 32.5361 32.375 30.8333V20.0416C32.375 18.3387 30.9945 16.9583 29.2917 16.9583Z" stroke="black" stroke-width="2" stroke-linecap="round" stroke-linejoin="round"/>
<path d="M10.7915 16.9583V10.7916C10.7915 8.74721 11.6036 6.78656 13.0492 5.34097C14.4948 3.89538 16.4555 3.08325 18.4998 3.08325C20.5442 3.08325 22.5049 3.89538 23.9505 5.34097C25.396 6.78656 26.2082 8.74721 26.2082 10.7916V16.9583" stroke="black" stroke-width="2" stroke-linecap="round" stroke-linejoin="round"/>
</svg>
