<svg width="51" height="72" viewBox="0 0 51 72" fill="none" xmlns="http://www.w3.org/2000/svg">
<path fill-rule="evenodd" clip-rule="evenodd" d="M29.6731 66.1939C29.6731 69.0904 23.1444 71.4382 15.0907 71.4382C7.03677 71.4382 0.508301 69.0904 0.508301 66.1939C0.508301 63.6936 5.37778 61.6011 11.8926 61.0768V66.1939H18.2894V61.0768C24.804 61.6015 29.6736 63.6934 29.6736 66.1939H29.6731ZM50.3032 28.7149L42.9924 18.2535L50.3017 7.79206C50.5259 7.47341 50.5518 7.08366 50.3718 6.73854C50.1917 6.39393 49.8574 6.19154 49.4692 6.19154H21.9227V30.3144H49.4692C49.8569 30.3144 50.1917 30.1125 50.3718 29.7674C50.5518 29.4223 50.5264 29.0336 50.3038 28.7144L50.3032 28.7149ZM11.8928 61.0178V4.16027C11.8928 2.3942 13.3257 0.962402 15.0912 0.962402C16.8568 0.962402 18.2896 2.39367 18.2896 4.16027V61.0178C17.2242 60.9322 16.1566 60.8922 15.0912 60.8922C14.0258 60.8917 12.9582 60.9322 11.8928 61.0178Z" fill="#0066A1"/>
</svg>
