<svg width="44" height="53" viewBox="0 0 44 53" fill="none" xmlns="http://www.w3.org/2000/svg">
<path d="M40.8981 0.415283H3.10231C2.38629 0.415283 1.69953 0.69987 1.19324 1.20618C0.686942 1.71248 0.402344 2.39923 0.402344 3.11476V30.1126C0.402344 30.8286 0.68693 31.5154 1.19324 32.0217C1.69954 32.528 2.38629 32.8126 3.10231 32.8121H40.8981C41.6141 32.8121 42.3009 32.528 42.8072 32.0217C43.3135 31.5154 43.5981 30.8286 43.5981 30.1126V3.11476C43.5981 2.39922 43.3135 1.71247 42.8072 1.20618C42.3009 0.699882 41.6141 0.415283 40.8981 0.415283ZM9.17637 25.7251C8.28133 25.7251 7.4232 25.3695 6.79024 24.7365C6.15724 24.1035 5.80162 23.2453 5.80162 22.3503C5.80162 21.4553 6.15723 20.5968 6.79024 19.9642C7.42324 19.3312 8.28136 18.9756 9.17637 18.9756C10.0714 18.9756 10.9299 19.3312 11.5625 19.9642C12.1955 20.5967 12.5511 21.4553 12.5511 22.3503C12.5511 23.2454 12.1955 24.1035 11.5625 24.7365C10.93 25.3695 10.0714 25.7251 9.17637 25.7251ZM9.17637 14.9262C8.28133 14.9262 7.4232 14.5706 6.79024 13.9376C6.15724 13.305 5.80162 12.4465 5.80162 11.5514C5.80162 10.6564 6.15723 9.7979 6.79024 9.16531C7.42324 8.53231 8.28136 8.17668 9.17637 8.17668C10.0714 8.17668 10.9299 8.5323 11.5625 9.16531C12.1955 9.7983 12.5511 10.6564 12.5511 11.5514C12.5511 12.4465 12.1955 13.305 11.5625 13.9376C10.93 14.5706 10.0714 14.9262 9.17637 14.9262ZM30.7747 25.3877L19.9758 25.3872C19.0452 25.3858 18.2913 24.6309 18.2913 23.7004C18.2913 22.7694 19.0452 22.0144 19.9758 22.0131H30.7747C31.2224 22.0121 31.6524 22.1897 31.9696 22.506C32.2869 22.8227 32.4649 23.2522 32.4649 23.7005C32.4649 24.1482 32.2869 24.5777 31.9696 24.8945C31.6524 25.2107 31.2224 25.3883 30.7747 25.3874V25.3877ZM36.1741 18.6382H19.9754C19.0434 18.6382 18.2881 17.8828 18.2881 16.9509C18.2881 16.0189 19.0434 15.2636 19.9754 15.2636H36.1741C37.1056 15.2636 37.8609 16.0189 37.8609 16.9509C37.8609 17.8829 37.1056 18.6382 36.1741 18.6382ZM36.1741 11.8887H19.9754C19.0434 11.8887 18.2881 11.1333 18.2881 10.2013C18.2881 9.26984 19.0434 8.51403 19.9754 8.51403H36.1741C37.1056 8.51403 37.8609 9.26988 37.8609 10.2013C37.8609 11.1333 37.1056 11.8887 36.1741 11.8887ZM32.4956 48.2532V48.2536C32.8752 48.6332 33.0888 49.1482 33.0888 49.6852C33.0888 50.2222 32.8757 50.7371 32.4956 51.1167C32.116 51.4968 31.6011 51.7099 31.0641 51.7099C30.5271 51.7099 30.0121 51.4963 29.6326 51.1162L24.0253 45.5094V50.3598C24.0253 51.083 23.6394 51.7515 23.0131 52.1133C22.3864 52.4747 21.6146 52.4747 20.9879 52.1133C20.3617 51.7515 19.9758 51.083 19.9758 50.3598V45.5094L14.3685 51.1167V51.1162C13.9889 51.4963 13.4739 51.7099 12.937 51.7099C12.3999 51.7099 11.885 51.4968 11.5054 51.1167C11.1253 50.7371 10.9123 50.2222 10.9123 49.6852C10.9123 49.1482 11.1258 48.6332 11.5054 48.2536L19.9758 39.7833V37.9706C19.9758 37.2474 20.3617 36.5789 20.9884 36.2171C21.6147 35.8557 22.3864 35.8557 23.0131 36.2171C23.6394 36.5789 24.0252 37.2475 24.0252 37.9706V39.7833L32.4956 48.2532Z" fill="white"/>
</svg>
