<svg width="64" height="64" viewBox="0 0 64 64" fill="none" xmlns="http://www.w3.org/2000/svg">
<path fill-rule="evenodd" clip-rule="evenodd" d="M7.70933 42.8987C6.19467 39.5467 5.33333 35.8427 5.33333 31.9333C5.33333 18.0987 15.8773 6.69067 29.3333 5.34667V0C12.912 1.36267 0 15.1253 0 31.9333C0 36.8213 1.12267 41.4347 3.07467 45.5813L7.70933 42.8987ZM58.6667 31.9333C58.6667 18.0987 48.1227 6.69067 34.6667 5.34667V0C51.088 1.36267 64 15.1253 64 31.9333C64 36.824 62.8747 41.4373 60.9227 45.584L56.288 42.9013C57.8027 39.5493 58.6667 35.8453 58.6667 31.9333ZM24 18.5707V45.2933L48 32.3227L24 18.5707ZM32 58.656C40.8933 58.656 48.7653 54.2507 53.6107 47.5227L58.2693 50.2187C52.488 58.5413 42.8853 64 32 64C21.112 64 11.5093 58.5413 5.73067 50.216L10.3867 47.52C15.232 54.2533 23.1067 58.656 32 58.656Z" fill="#0066A1"/>
</svg>
