<svg width="64" height="59" viewBox="0 0 64 59" fill="none" xmlns="http://www.w3.org/2000/svg">
<path fill-rule="evenodd" clip-rule="evenodd" d="M16 53.6364H36.0053C36.8373 55.645 38.0453 57.4553 39.52 59H0V0H58.6667V30.8463C53.6347 28.7303 47.6587 29.0414 42.6667 32.2676V32.1818H16V53.6364ZM52 34.8636C45.3787 34.8636 40 40.2675 40 46.9318C40 53.5961 45.3787 59 52 59C58.6213 59 64 53.5961 64 46.9318C64 40.2675 58.6213 34.8636 52 34.8636ZM58.6667 48.2727H53.3333V53.6364H50.6667V48.2727H45.3333V45.5909H50.6667V40.2273H53.3333V45.5909H58.6667V48.2727ZM48 5.36364H53.3333V10.7273H48V5.36364ZM53.3333 16.0909H48V21.4545H53.3333V16.0909ZM16 5.36364H42.6667V26.8182H16V5.36364ZM5.33333 53.6364H10.6667V48.2727H5.33333V53.6364ZM10.6667 42.9091H5.33333V37.5455H10.6667V42.9091ZM5.33333 32.1818H10.6667V26.8182H5.33333V32.1818ZM10.6667 21.4545H5.33333V16.0909H10.6667V21.4545ZM5.33333 10.7273H10.6667V5.36364H5.33333V10.7273Z" fill="#0066A1"/>
</svg>
