<svg width="57" height="60" viewBox="0 0 57 60" fill="none" xmlns="http://www.w3.org/2000/svg">
<path d="M6.06646 26.13L13.0266 29.0162H13.0261C12.2414 30.9975 11.6157 33.0378 11.1545 35.1183L10.8904 36.3182L20.8685 46.3022L22.0684 46.0444V46.044C24.1489 45.5828 26.1892 44.957 28.1705 44.1723L31.0567 51.1324L31.0563 51.132C31.1136 51.2722 31.2379 51.3739 31.3865 51.4032C31.5351 51.4321 31.6883 51.3844 31.7942 51.276L36.156 46.9141H36.1565C37.5958 45.4747 38.3588 43.4934 38.2562 41.4603L38.1006 38.6583C46.1765 32.6943 54.3477 22.2365 56.5741 3.98471C56.7022 3.05726 56.3895 2.1231 55.7291 1.45892C55.0691 0.795138 54.1367 0.477898 53.2084 0.600941C34.9619 2.84462 24.4984 11.0227 18.5348 19.0745L15.7386 18.9305C13.7099 18.8201 11.7291 19.5721 10.2848 21.0005L5.92291 25.3624C5.79987 25.4671 5.74211 25.6295 5.77182 25.7885C5.80153 25.9471 5.91412 26.0777 6.06688 26.1304L6.06646 26.13ZM34.05 15.4982C35.0637 14.4879 36.4369 13.9216 37.8679 13.9233C39.2992 13.925 40.6711 14.4946 41.6824 15.507C42.6936 16.5194 43.2619 17.8922 43.2619 19.3231C43.2619 20.754 42.6935 22.1268 41.6824 23.1392C40.6712 24.1516 39.2993 24.7217 37.8679 24.7229C36.437 24.7246 35.0637 24.1583 34.05 23.148C33.033 22.1347 32.4618 20.7586 32.4618 19.3231C32.4618 17.8876 33.033 16.5115 34.05 15.4982ZM4.76361 47.1C3.6085 46.6944 2.36843 46.5953 1.16339 46.8116C0.945762 46.8589 0.719337 46.7911 0.563637 46.6317C0.369023 46.4379 0.316287 46.1432 0.43138 45.8938C1.70959 43.1458 5.09959 37.6199 11.2378 42.0839C11.3027 42.1417 11.3399 42.2249 11.3399 42.3116C11.3399 42.3986 11.3027 42.4819 11.2378 42.5397C9.5712 43.8522 8.62909 45.8795 8.69981 47.9998C8.70902 48.2543 8.91326 48.4585 9.16772 48.4677C11.2788 48.5527 13.3048 47.6311 14.6278 45.9837C14.686 45.9126 14.7731 45.8711 14.8647 45.8711C14.9568 45.8711 15.0438 45.9126 15.102 45.9837C15.9541 46.9978 18.3 50.3096 15.7022 53.5076H15.7018C14.5676 54.8712 12.9424 55.733 11.1779 55.9078C8.65787 56.1778 4.00176 56.9997 2.09998 59.1719C1.94429 59.3561 1.69986 59.4398 1.46382 59.3895C1.22819 59.3393 1.03902 59.1635 0.971625 58.9317C0.299893 56.6398 -0.744374 51.5158 4.76395 47.0999L4.76361 47.1Z" fill="white"/>
</svg>
