<svg width="16" height="16" viewBox="0 0 16 16" fill="none" xmlns="http://www.w3.org/2000/svg">
<path d="M12.1111 9.5863C11.6633 9.48997 11.309 9.69788 10.9953 9.87945C10.6741 10.0666 10.0633 10.5621 9.71316 10.4352C7.92057 9.69718 6.23461 8.12818 5.50478 6.32841C5.37615 5.97081 5.86935 5.3561 6.05507 5.03108C6.2353 4.71645 6.4389 4.35885 6.34604 3.90769C6.26212 3.50228 5.17667 2.12109 4.79283 1.74339C4.5397 1.4939 4.28037 1.35669 4.01417 1.33451C3.01332 1.29154 1.89553 2.62699 1.69949 2.94647C1.20835 3.62771 1.2111 4.53418 1.70774 5.63331C2.90463 8.58558 7.4315 13.041 10.3948 14.2829C10.9417 14.5386 11.4418 14.6668 11.891 14.6668C12.3305 14.6668 12.7219 14.5442 13.0583 14.3009C13.3121 14.1547 14.7023 12.9814 14.6658 11.9537C14.6438 11.6917 14.5069 11.4297 14.2607 11.1761C13.8858 10.7887 12.5135 9.67085 12.1111 9.5863Z" fill="white"/>
</svg>
