<svg width="24" height="24" viewBox="0 0 24 24" fill="none" xmlns="http://www.w3.org/2000/svg">
<path d="M15.6294 14.4L13.1094 16.9C10.6094 15.47 8.53941 13.4 7.10941 10.9L9.60941 8.38C9.83941 8.14 9.93941 7.81 9.87941 7.48L9.12941 3.8C9.03941 3.34 8.62941 3 8.14941 3H3.99941C3.43941 3 2.96941 3.47 2.99941 4.03C3.16941 6.92 4.04941 9.63 5.42941 12C7.00941 14.73 9.27941 16.99 11.9994 18.57C14.3694 19.94 17.0794 20.83 19.9694 21C20.5294 21.03 20.9994 20.56 20.9994 20V15.85C20.9994 15.37 20.6594 14.96 20.1994 14.87L16.5294 14.14C16.3696 14.1052 16.2036 14.1108 16.0465 14.1562C15.8894 14.2015 15.746 14.2853 15.6294 14.4Z" fill="#0066A1"/>
</svg>
