<svg width="24" height="25" viewBox="0 0 24 25" fill="none" xmlns="http://www.w3.org/2000/svg">
<path d="M19.507 15.24C20.161 14.0119 20.5021 12.6414 20.5 11.25C20.5 6.5555 16.6945 2.75 12 2.75C7.30551 2.75 3.50001 6.5555 3.50001 11.25C3.49657 13.2551 4.20536 15.1963 5.50001 16.7275L5.51001 16.74C5.51351 16.743 5.51651 16.747 5.51901 16.75H5.50001L10.544 22.105C10.731 22.3035 10.9566 22.4616 11.2069 22.5697C11.4573 22.6778 11.7271 22.7336 11.9998 22.7336C12.2724 22.7336 12.5422 22.6778 12.7926 22.5697C13.0429 22.4616 13.2685 22.3035 13.4555 22.105L18.5 16.75H18.481L18.489 16.7405L18.49 16.7395C18.526 16.6965 18.562 16.6535 18.5975 16.6095C18.9443 16.1833 19.2491 15.7244 19.5075 15.2395L19.507 15.24ZM12.002 14.5C11.2064 14.5 10.4433 14.1839 9.88069 13.6213C9.31808 13.0587 9.00201 12.2956 9.00201 11.5C9.00201 10.7044 9.31808 9.94129 9.88069 9.37868C10.4433 8.81607 11.2064 8.5 12.002 8.5C12.7977 8.5 13.5607 8.81607 14.1233 9.37868C14.6859 9.94129 15.002 10.7044 15.002 11.5C15.002 12.2956 14.6859 13.0587 14.1233 13.6213C13.5607 14.1839 12.7977 14.5 12.002 14.5Z" fill="#0066A1"/>
</svg>
