<svg width="26" height="26" viewBox="0 0 26 26" fill="none" xmlns="http://www.w3.org/2000/svg">
<path d="M14.4699 6.98811C14.4153 6.46124 14.3585 5.9146 14.2188 5.36912C13.8383 4.06416 12.7841 3.25001 11.6538 3.25001C11.0233 3.24768 10.2258 3.63615 9.77372 4.02927L6.02612 7.16838H4.06428C2.62045 7.16838 1.45948 8.28144 1.24023 9.88763C1.05393 11.4299 1.00849 14.341 1.24023 16.0379C1.4413 17.7348 2.55002 18.8316 4.06428 18.8316H6.02612L9.84642 22.0173C10.2383 22.358 10.9301 22.7488 11.5663 22.7488C11.6072 22.75 11.6435 22.75 11.6799 22.75C12.8318 22.75 13.8462 21.9056 14.2268 20.6041C14.371 20.0505 14.421 19.5318 14.4699 19.0305L14.521 18.5339C14.7164 16.923 14.7164 9.06651 14.521 7.46729L14.4699 6.98811Z" fill="white"/>
<path opacity="0.4" d="M18.8566 7.03586C18.5442 6.57529 17.9251 6.46014 17.4718 6.77999C17.0231 7.10215 16.9118 7.73719 17.2242 8.1966C18.0932 9.47714 18.5715 11.1822 18.5715 13.0001C18.5715 14.8168 18.0932 16.523 17.2242 17.8035C16.9118 18.2629 17.0231 18.898 17.473 19.2201C17.6411 19.3388 17.8376 19.4016 18.0398 19.4016C18.3659 19.4016 18.6703 19.2376 18.8566 18.9643C19.954 17.3476 20.5594 15.2297 20.5594 13.0001C20.5594 10.7705 19.954 8.65252 18.8566 7.03586Z" fill="white"/>
<path opacity="0.4" d="M22.2805 3.74528C21.9704 3.28587 21.349 3.1684 20.8969 3.48941C20.4482 3.81158 20.3369 4.44661 20.6481 4.90602C22.1181 7.07165 22.928 9.94675 22.928 12.9998C22.928 16.054 22.1181 18.9291 20.6481 21.0948C20.3369 21.5553 20.4482 22.1892 20.8981 22.5114C21.0662 22.63 21.2616 22.6928 21.4638 22.6928C21.7898 22.6928 22.0954 22.5288 22.2805 22.2555C23.98 19.7537 24.916 16.4669 24.916 12.9998C24.916 9.53503 23.98 6.24704 22.2805 3.74528Z" fill="white"/>
</svg>
