<svg width="40" height="40" viewBox="0 0 40 40" fill="none" xmlns="http://www.w3.org/2000/svg">
<path fill-rule="evenodd" clip-rule="evenodd" d="M0 19.75C0 8.842 8.843 0 19.75 0C30.657 0 39.5 8.842 39.5 19.75C39.5 30.658 30.657 39.5 19.75 39.5C8.843 39.5 0 30.658 0 19.75ZM4.144 19.686C4.134 22.319 6.259 24.459 8.889 24.471C11.52 24.48 13.663 22.357 13.674 19.725C13.685 17.093 11.559 14.953 8.929 14.94C6.299 14.931 4.155 17.056 4.144 19.686ZM19.685 35.355C17.054 35.344 14.93 33.202 14.941 30.572C14.952 27.941 17.094 25.814 19.725 25.826C22.355 25.837 24.48 27.98 24.471 30.611C24.458 33.242 22.316 35.366 19.685 35.355ZM19.75 17.667C18.6 17.667 17.667 18.6 17.667 19.75C17.667 20.9 18.6 21.833 19.75 21.833C20.9 21.833 21.833 20.9 21.833 19.75C21.833 18.6 20.9 17.667 19.75 17.667ZM19.775 13.674C17.144 13.663 15.02 11.52 15.03 8.889C15.041 6.258 17.183 4.134 19.815 4.145C22.445 4.155 24.57 6.298 24.559 8.93C24.548 11.559 22.407 13.686 19.775 13.674ZM25.826 19.776C25.814 22.41 27.939 24.549 30.57 24.561C33.201 24.57 35.346 22.445 35.355 19.815C35.366 17.185 33.241 15.044 30.609 15.033C27.98 15.021 25.837 17.146 25.826 19.776Z" fill="white"/>
</svg>
