<svg width="16" height="16" viewBox="0 0 16 16" fill="none" xmlns="http://www.w3.org/2000/svg">
<path fill-rule="evenodd" clip-rule="evenodd" d="M16 14.8855L12.6266 11.5128C13.6325 10.2579 14.1797 8.69706 14.1774 7.08871C14.1774 3.17574 11.0017 0 7.08871 0C3.17574 0 0 3.17574 0 7.08871C0 11.0017 3.17574 14.1774 7.08871 14.1774C8.69706 14.1797 10.2579 13.6325 11.5128 12.6266L14.8855 16L16 14.8855ZM12.6021 7.08871C12.6044 8.52254 12.0462 9.90047 11.0466 10.9284L10.9284 11.0466C9.90047 12.0462 8.52254 12.6044 7.08871 12.6021C4.04214 12.6021 1.57527 10.1345 1.57527 7.08871C1.57527 4.04214 4.04214 1.57527 7.08871 1.57527C10.1345 1.57527 12.6021 4.04214 12.6021 7.08871Z" fill="white"/>
</svg>
