<svg width="16" height="16" viewBox="0 0 16 16" fill="none" xmlns="http://www.w3.org/2000/svg">
<path fill-rule="evenodd" clip-rule="evenodd" d="M11.2929 2C12.1869 2 13.0469 2.35333 13.6796 2.98733C14.3129 3.62 14.6669 4.47333 14.6669 5.36667V10.6333C14.6669 12.4933 13.1536 14 11.2929 14H4.70693C2.84627 14 1.3336 12.4933 1.3336 10.6333V5.36667C1.3336 3.50667 2.8396 2 4.70693 2H11.2929ZM12.3536 6.36L12.4069 6.30667C12.5663 6.11333 12.5663 5.83333 12.3996 5.64C12.3069 5.54067 12.1796 5.48 12.0469 5.46667C11.9069 5.45933 11.7736 5.50667 11.6729 5.6L8.66693 8C8.28027 8.32067 7.72627 8.32067 7.3336 8L4.3336 5.6C4.12627 5.44667 3.8396 5.46667 3.66693 5.64667C3.48693 5.82667 3.46693 6.11333 3.6196 6.31333L3.70693 6.4L6.74027 8.76667C7.1136 9.06 7.56627 9.22 8.04027 9.22C8.51293 9.22 8.9736 9.06 9.34627 8.76667L12.3536 6.36Z" fill="white"/>
</svg>
