<svg width="16" height="16" viewBox="0 0 16 16" fill="none" xmlns="http://www.w3.org/2000/svg">
<path fill-rule="evenodd" clip-rule="evenodd" d="M2.33333 6.87867C2.33333 3.81209 4.89592 1.3335 7.99563 1.3335C11.1041 1.3335 13.6667 3.81209 13.6667 6.87867C13.6667 8.42396 13.1047 9.85858 12.1797 11.0745C11.1592 12.4158 9.90144 13.5845 8.48569 14.5018C8.16167 14.7138 7.86925 14.7298 7.51363 14.5018C6.08982 13.5845 4.83206 12.4158 3.82033 11.0745C2.89465 9.85858 2.33333 8.42396 2.33333 6.87867ZM6.12948 7.05133C6.12948 8.07863 6.96777 8.88661 7.99563 8.88661C9.02416 8.88661 9.87051 8.07863 9.87051 7.05133C9.87051 6.03203 9.02416 5.18472 7.99563 5.18472C6.96777 5.18472 6.12948 6.03203 6.12948 7.05133Z" fill="white"/>
</svg>
