<svg width="24" height="19" viewBox="0 0 24 19" fill="none" xmlns="http://www.w3.org/2000/svg">
<path fill-rule="evenodd" clip-rule="evenodd" d="M23.757 6.57733V18.6318C22.3095 17.4107 20.195 16.6749 17.9435 16.6749C15.9479 16.6749 14.0633 17.2426 12.6458 18.2334V16.2658C14.1405 15.358 16.0071 14.861 17.9435 14.861C19.3816 14.861 20.8138 15.1437 22.085 15.6788C22.2846 15.7627 22.5128 15.7412 22.6929 15.6215C22.8731 15.5018 22.9815 15.2997 22.9815 15.0834L22.9819 5.4143C23.4182 5.71312 23.7569 6.09867 23.7569 6.57715L23.757 6.57733ZM1.91492 15.6786C1.71532 15.7625 1.48707 15.7411 1.30699 15.6213C1.12675 15.5016 1.01841 15.2996 1.01841 15.0833V5.93581C0.710669 6.19745 0.449204 6.47825 0.243164 6.77197V18.6317C1.69064 17.4105 3.8052 16.6748 6.05668 16.6748C8.05229 16.6748 9.93691 17.2425 11.3544 18.2332V16.2657C9.85968 15.3578 7.99308 14.8609 6.05668 14.8609C4.61853 14.8607 3.1862 15.1434 1.91499 15.6785L1.91492 15.6786ZM5.54126 0.70504C4.33853 0.687964 3.24854 1.16268 2.31029 2.09389V14.1551C3.49859 13.7702 4.7764 13.5691 6.05655 13.5691C7.94875 13.5691 9.78951 13.9975 11.3542 14.7894V3.80501C9.54797 1.87542 7.38998 0.719223 5.54121 0.705186L5.54126 0.70504ZM21.6898 14.155V4.3581V4.3562V1.54455C20.9501 0.875717 20.034 0.547326 18.9666 0.569134C16.6695 0.61467 14.1284 2.24597 12.646 3.80598V14.7894C14.2105 13.9975 16.0513 13.5691 17.9437 13.5691C19.2238 13.5691 20.5016 13.7702 21.6899 14.1551L21.6898 14.155Z" fill="white"/>
</svg>
