<svg width="26" height="26" viewBox="0 0 26 26" fill="none" xmlns="http://www.w3.org/2000/svg">
<path fill-rule="evenodd" clip-rule="evenodd" d="M13.3539 2.39388C13.5269 2.2386 13.7558 2.1572 13.99 2.16764C18.9417 2.31587 23.0801 5.91053 23.8301 10.7149C23.8349 10.7436 23.8349 10.7729 23.8301 10.8016C23.8462 11.0289 23.7694 11.2531 23.6166 11.4248C23.4638 11.5964 23.2476 11.7012 23.0158 11.716L14.6964 12.2646C14.4212 12.289 14.1484 12.1985 13.9448 12.0152C13.7413 11.832 13.6259 11.5731 13.627 11.3021L13.0678 3.13017V2.99542C13.078 2.76559 13.1809 2.54917 13.3539 2.39388ZM12.7833 14.4014L19.9941 13.9394L20.0432 13.9587C20.3528 13.9637 20.6477 14.0893 20.863 14.3077C21.0783 14.5261 21.1963 14.8195 21.191 15.1233C20.9069 19.2639 17.8712 22.7235 13.74 23.6148C9.60882 24.5061 5.37385 22.6151 3.34542 18.9735C2.74898 17.9246 2.37207 16.7694 2.23682 15.5757C2.18436 15.222 2.16139 14.8647 2.16814 14.5073C2.18181 10.1044 5.31654 6.30407 9.70273 5.37287C10.2337 5.27349 10.7661 5.5386 10.9977 6.01777C11.0554 6.10472 11.1016 6.19852 11.1351 6.29691C11.2173 7.56607 11.3026 8.82322 11.3875 10.0751C11.4546 11.0638 11.5214 12.0492 11.5864 13.0346C11.583 13.2668 11.6195 13.4978 11.6943 13.718C11.8704 14.1514 12.3085 14.4263 12.7833 14.4014Z" fill="white"/>
</svg>
