<svg width="26" height="26" viewBox="0 0 26 26" fill="none" xmlns="http://www.w3.org/2000/svg">
<path fill-rule="evenodd" clip-rule="evenodd" d="M5.72008 2.08008H20.2801C22.2904 2.08008 23.9201 3.70976 23.9201 5.72008V13.0001C23.9201 15.0104 22.2904 16.6401 20.2801 16.6401H5.72008C3.70976 16.6401 2.08008 15.0104 2.08008 13.0001V5.72008C2.08008 3.70976 3.70976 2.08008 5.72008 2.08008ZM23.9201 16.1201V15.6001C23.9201 15.6001 23.1343 17.5037 20.2801 17.6801H5.72008C2.80477 17.4648 2.08008 15.6001 2.08008 15.6001V16.1201C2.08008 18.1304 3.70976 19.7601 5.72008 19.7601H20.2801C22.2904 19.7601 23.9201 18.1304 23.9201 16.1201ZM23.9201 19.2401V18.7201C23.9201 18.7201 23.1343 20.6237 20.2801 20.8001H5.72008C2.80477 20.5848 2.08008 18.7201 2.08008 18.7201V19.2401C2.08008 21.2504 3.70976 22.8801 5.72008 22.8801H20.2801C22.2904 22.8801 23.9201 21.2504 23.9201 19.2401ZM15.0801 6.24008H13.5201V5.72008C13.5201 5.43289 13.2873 5.20008 13.0001 5.20008C12.7129 5.20008 12.4801 5.43289 12.4801 5.72008V6.24008H11.9746C11.113 6.24008 10.4146 6.93851 10.4146 7.80008V8.32087C10.4146 9.18243 11.113 9.88087 11.9746 9.88087H14.0401C14.3273 9.88087 14.5601 10.1137 14.5601 10.4009V10.9201C14.5601 11.2073 14.3273 11.4401 14.0401 11.4401H11.4528C11.4314 11.1799 11.2175 10.9717 10.9504 10.9636C10.6633 10.9549 10.4236 11.1805 10.4148 11.4676L10.4003 11.9443C10.3914 12.2375 10.6267 12.4801 10.9201 12.4801H12.4801V12.991C12.4801 13.2782 12.7129 13.511 13.0001 13.511C13.2873 13.511 13.5201 13.2782 13.5201 12.991V12.4801H14.0401C14.9016 12.4801 15.6001 11.7816 15.6001 10.9201V10.4009C15.6001 9.5393 14.9016 8.84087 14.0401 8.84087H11.9746C11.6874 8.84087 11.4546 8.60805 11.4546 8.32087V7.80008C11.4546 7.51289 11.6874 7.28008 11.9746 7.28008H14.5755C14.632 7.50622 14.8365 7.67376 15.0801 7.67376C15.3673 7.67376 15.6001 7.44095 15.6001 7.15376V6.76008C15.6001 6.47289 15.3673 6.24008 15.0801 6.24008Z" fill="white"/>
</svg>
