<svg width="19" height="19" viewBox="0 0 19 19" fill="none" xmlns="http://www.w3.org/2000/svg">
<g clip-path="url(#clip0_406_8767)">
<path d="M1.38542 18.2084H3.36458C4.12854 18.2084 4.75 17.5869 4.75 16.823V7.71879C4.75 6.95483 4.12854 6.33337 3.36458 6.33337H1.38542C0.621458 6.33337 0 6.95483 0 7.71879V16.823C0 17.5869 0.621458 18.2084 1.38542 18.2084Z" fill="white"/>
<path d="M10.1183 0.59375C9.32663 0.59375 8.93079 0.989583 8.93079 2.96875C8.93079 4.84975 7.10917 6.36342 5.9375 7.14321V16.9504C7.20496 17.537 9.74225 18.4062 13.6808 18.4062H14.9475C16.4912 18.4062 17.8054 17.2979 18.0666 15.7779L18.9533 10.6321C19.2858 8.6925 17.7975 6.92708 15.8341 6.92708H12.0975C12.0975 6.92708 12.6912 5.73958 12.6912 3.76042C12.6912 1.38542 10.91 0.59375 10.1183 0.59375Z" fill="white"/>
</g>
<defs>
<clipPath id="clip0_406_8767">
<rect width="19" height="19" fill="white"/>
</clipPath>
</defs>
</svg>
